<svg width="34" height="34" viewBox="0 0 34 34" fill="none" xmlns="http://www.w3.org/2000/svg">
<path d="M24.149 30.5589C26.8022 30.5993 29.2056 29.1622 29.2206 26.8532C29.2506 21.5381 29.2722 15.9001 29.2856 9.93917C29.2856 9.26368 29.692 8.84386 30.5047 8.67969C30.8612 8.60703 31.2576 8.65682 31.6939 8.82906C31.9005 8.90996 32.0744 9.0367 32.1955 9.19459C32.3167 9.35249 32.3801 9.53507 32.3785 9.72118C32.3252 14.6783 32.3302 20.0957 32.3935 25.9732C32.4101 27.3242 32.1969 28.406 31.7539 29.2187C30.8445 30.898 29.3888 32.0499 27.3868 32.6742C26.3675 32.9918 24.9152 33.1411 23.0298 33.1223C17.5268 33.0712 12.6202 33.0698 8.30974 33.1183C7.06059 33.1317 5.9047 32.9554 4.84208 32.5894C1.25451 31.3461 -0.024625 28.7626 0.000358075 25.6947C0.0569865 19.2789 0.0586512 12.956 0.00535386 6.7259C-0.00797047 5.42606 0.405085 4.25002 1.24452 3.19777C3.00333 1.00177 5.43668 0.468921 8.59455 0.509289C11.4493 0.546965 13.9992 0.553693 16.2444 0.529472C17.3037 0.516017 17.9266 0.930458 18.1131 1.7728C18.1398 1.89659 18.1281 2.01904 18.0781 2.14014C17.8117 2.79948 17.2504 3.12915 16.3943 3.12915C13.5962 3.13722 10.5932 3.13588 7.38536 3.12511C4.99198 3.11704 3.1932 4.4855 3.1982 6.38278C3.21485 12.7017 3.20985 19.2722 3.18321 26.0943C3.16822 28.92 4.95701 30.6356 8.73445 30.563C13.4713 30.4742 18.6094 30.4728 24.149 30.5589Z" fill="#F5F5FF"/>
<path d="M25.3298 0.537043L21.2926 0.554121C20.4537 0.55767 19.7772 1.10996 19.7816 1.78771L19.7825 1.92495C19.7869 2.6027 20.4705 3.14924 21.3094 3.14569L25.3466 3.12861C26.1855 3.12506 26.862 2.57277 26.8576 1.89502L26.8567 1.75778C26.8523 1.08004 26.1687 0.533495 25.3298 0.537043Z" fill="#F5F5FF"/>
<path d="M32.513 0.846727L32.4645 0.818185C31.6975 0.366314 30.6223 0.502342 30.063 1.12201L18.287 14.1687C17.7277 14.7883 17.8961 15.657 18.6631 16.1089L18.7116 16.1374C19.4786 16.5893 20.5538 16.4532 21.1131 15.8336L32.8891 2.78692C33.4484 2.16725 33.28 1.2986 32.513 0.846727Z" fill="#F5F5FF"/>
<path d="M14.5955 4.06958H7.19049C6.31295 4.06958 5.60156 4.64431 5.60156 5.35327V5.44208C5.60156 6.15104 6.31295 6.72577 7.19049 6.72577H14.5955C15.473 6.72577 16.1844 6.15104 16.1844 5.44208V5.35327C16.1844 4.64431 15.473 4.06958 14.5955 4.06958Z" fill="#F5F5FF"/>
<path d="M18.0003 8.80112L7.16763 8.81639C6.30113 8.81761 5.59992 9.3861 5.60143 10.0861L5.60171 10.2153C5.60322 10.9154 6.30689 11.4819 7.17339 11.4807L18.006 11.4654C18.8725 11.4642 19.5738 10.8957 19.5722 10.1956L19.572 10.0664C19.5705 9.3664 18.8668 8.79989 18.0003 8.80112Z" fill="#F5F5FF"/>
<path d="M14.6062 13.6271L7.18131 13.6062C6.32034 13.6038 5.61994 14.1657 5.61693 14.8613L5.61634 14.9985C5.61334 15.6941 6.30886 16.2599 7.16984 16.2624L14.5948 16.2833C15.4557 16.2857 16.1561 15.7238 16.1591 15.0282L16.1597 14.891C16.1627 14.1954 15.4672 13.6296 14.6062 13.6271Z" fill="#F5F5FF"/>
<path d="M25.2134 18.4001H7.17555C6.30353 18.4001 5.59662 18.9713 5.59662 19.6758V19.7807C5.59662 20.4852 6.30353 21.0563 7.17555 21.0563H25.2134C26.0854 21.0563 26.7923 20.4852 26.7923 19.7807V19.6758C26.7923 18.9713 26.0854 18.4001 25.2134 18.4001Z" fill="#F5F5FF"/>
<path d="M25.2455 23.2073L7.15772 23.2328C6.30225 23.234 5.60998 23.7953 5.61147 24.4864L5.61171 24.5994C5.61321 25.2905 6.3079 25.8498 7.16337 25.8486L25.2511 25.8231C26.1066 25.8219 26.7989 25.2607 26.7974 24.5695L26.7971 24.4565C26.7956 23.7654 26.1009 23.2061 25.2455 23.2073Z" fill="#F5F5FF"/>
</svg>
